<?xml version="1.0" ?><svg contentScriptType="text/ecmascript" contentStyleType="text/css" enable-background="new 0 0 2048 2048" height="2048px" id="Layer_1" preserveAspectRatio="xMidYMid meet" version="1.1" viewBox="64.0 0 1728.0 2048" width="1728.0px" xml:space="preserve" xmlns="http://www.w3.org/2000/svg" xmlns:xlink="http://www.w3.org/1999/xlink" zoomAndPan="magnify"><path d="M320,384c0,48-21.333,84.667-64,110v1266c0,8.667-3.167,16.167-9.5,22.5s-13.833,9.5-22.5,9.5h-64  c-8.667,0-16.167-3.167-22.5-9.5s-9.5-13.833-9.5-22.5V494c-42.667-25.333-64-62-64-110c0-35.333,12.5-65.5,37.5-90.5  S156.667,256,192,256s65.5,12.5,90.5,37.5S320,348.667,320,384z M1792,448v763c0,16.667-4.167,29.5-12.5,38.5  s-21.5,18.167-39.5,27.5c-143.333,77.333-266.333,116-369,116c-40.667,0-81.833-7.333-123.5-22s-77.833-30.667-108.5-48  s-69.167-33.333-115.5-48c-46.333-14.667-93.833-22-142.5-22c-128,0-282.667,48.667-464,146c-11.333,6-22.333,9-33,9  c-17.333,0-32.333-6.333-45-19s-19-27.667-19-45V602c0-21.333,10.333-39.667,31-55c14-9.333,40.333-23.667,79-43  c157.333-80,297.667-120,421-120c71.333,0,138,9.667,200,29s135,48.667,219,88c25.333,12.667,54.667,19,88,19  c36,0,75.167-7,117.5-21s79-29.667,110-47s60.333-33,88-47s45.833-21,54.5-21c17.333,0,32.333,6.333,45,19S1792,430.667,1792,448z"/></svg>